# xmcd
#
# Track frame offsets: 
#        150
#        96917
#        195846
#
# Disc length: 3440 seconds
#
# Revision: 0
# Processed by: cddbd v1.5.2PL0 Copyright (c) Steve Scherf et al.
# Submitted via: ExactAudioCopy v0.95a5
#
DISCID=1a0d6e03
DTITLE=Various Artist - 白衣神咒
DYEAR=2007
DGENRE=A Cappella
TTITLE0=白衣神咒(梵唱版)
TTITLE1=白衣神咒(男女众唱版)
TTITLE2=白衣神咒(二胡演奏版)
EXTD=
EXTT0=
EXTT1=
EXTT2=
PLAYORDER=
